<?xml version="1.0" standalone="no"?>
<!DOCTYPE svg PUBLIC "-//W3C//DTD SVG 20010904//EN"
 "http://www.w3.org/TR/2001/REC-SVG-20010904/DTD/svg10.dtd">
<svg version="1.0" xmlns="http://www.w3.org/2000/svg"
 width="400.000000pt" height="400.000000pt" viewBox="0 0 400.000000 400.000000"
 preserveAspectRatio="xMidYMid meet">

<g transform="translate(0.000000,400.000000) scale(0.100000,-0.100000)"
fill="#000000" stroke="none">
<path d="M3353 3993 c-15 -5 -17 -23 -4 -23 5 0 11 7 15 15 3 8 4 15 3 14 -1
0 -8 -3 -14 -6z"/>
<path d="M3530 3994 c8 -3 25 -10 37 -16 13 -6 26 -8 30 -5 10 11 2 15 -42 21
-22 3 -33 3 -25 0z"/>
<path d="M3578 3923 c7 -3 16 -2 19 1 4 3 -2 6 -13 5 -11 0 -14 -3 -6 -6z"/>
<path d="M931 3863 c-6 -21 -11 -44 -11 -50 0 -7 -6 -13 -14 -13 -19 0 -43
-32 -85 -111 -26 -49 -33 -71 -27 -92 7 -31 35 -36 58 -9 35 39 80 145 88 204
5 35 12 73 16 86 4 13 2 22 -4 22 -6 0 -16 -17 -21 -37z"/>
<path d="M3583 3536 c8 -20 -1 -46 -16 -46 -6 0 -30 9 -54 21 -32 16 -47 18
-57 10 -11 -9 -217 -16 -310 -10 -18 1 -32 -5 -38 -15 -8 -15 -25 -16 -122
-14 -121 3 -139 -2 -157 -49 -9 -26 -15 -26 -114 -13 -53 7 -90 5 -155 -7
-104 -19 -161 -34 -177 -46 -9 -6 -13 -5 -13 3 0 10 -4 10 -17 -1 -39 -31 -83
-49 -125 -50 -23 -1 -33 -4 -20 -6 12 -2 22 -7 22 -11 0 -4 -34 -20 -75 -36
-41 -15 -80 -35 -86 -42 -6 -8 -38 -28 -70 -45 -58 -31 -115 -80 -77 -66 17 6
95 56 146 93 33 24 30 -5 -4 -37 -15 -13 -37 -46 -51 -74 -13 -27 -33 -65 -45
-84 -16 -25 -22 -53 -24 -108 -2 -41 -8 -81 -15 -89 -20 -24 -8 -182 19 -235
12 -25 22 -52 23 -60 0 -8 11 -34 24 -59 56 -105 56 -107 -17 -187 -60 -67
-57 -84 4 -19 24 25 47 46 51 46 4 0 7 -16 7 -35 0 -44 15 -46 24 -3 3 17 8
29 10 27 3 -2 0 -25 -5 -51 -13 -60 -43 -89 -142 -139 -89 -43 -95 -45 -78
-25 10 12 8 13 -8 9 -11 -3 -26 -12 -32 -20 -11 -12 -6 -13 29 -9 23 3 52 12
64 20 12 9 29 16 37 16 20 0 -24 -32 -87 -64 -72 -36 -183 -109 -205 -133 -16
-18 -16 -21 -2 -33 14 -11 13 -14 -3 -26 -10 -7 -40 -18 -65 -25 -26 -6 -47
-14 -47 -18 0 -9 -159 5 -200 18 -38 12 -191 15 -253 5 -37 -7 -37 -7 -13 -19
13 -7 42 -13 64 -13 41 -1 135 -25 162 -42 29 -18 -8 -33 -112 -43 -57 -6
-120 -10 -140 -9 -20 1 -56 -5 -79 -13 -23 -8 -69 -15 -103 -15 -33 -1 -87 -7
-119 -15 -59 -14 -183 -84 -240 -136 -17 -16 -35 -29 -38 -29 -4 0 -15 -14
-23 -31 -12 -25 -13 -35 -4 -46 17 -21 63 -7 153 47 173 104 269 140 365 139
30 0 49 -3 43 -6 -7 -2 -13 -11 -13 -19 0 -8 -7 -14 -17 -14 -35 0 -351 -118
-403 -150 -8 -5 -28 -17 -45 -26 -40 -22 -107 -75 -102 -81 3 -2 20 4 38 14
19 10 57 19 84 20 28 1 44 0 38 -3 -22 -10 -14 -24 13 -24 21 0 25 -4 23 -22
-2 -13 0 -28 4 -34 9 -16 -68 -94 -139 -140 -33 -21 -85 -66 -115 -100 -60
-67 -122 -124 -135 -124 -5 0 -17 19 -26 41 -10 22 -22 38 -27 34 -7 -4 -8 1
-4 12 6 16 5 17 -12 3 -17 -14 -18 -14 -6 7 9 18 9 28 0 45 l-12 22 -17 -22
c-29 -36 -33 -25 -5 15 14 21 25 42 25 48 0 5 -4 5 -8 -2 -10 -15 -31 2 -54
42 -65 118 -69 130 -63 165 3 19 7 55 8 80 3 53 15 90 28 90 5 0 2 -14 -6 -31
-9 -17 -14 -33 -11 -37 7 -7 7 -7 40 45 25 41 156 155 203 176 13 6 23 14 23
19 0 5 -13 2 -30 -7 -16 -9 -30 -12 -30 -7 0 5 12 14 28 21 27 13 27 13 -33
32 -33 10 -62 19 -65 19 -17 0 -92 -84 -128 -144 l-42 -70 0 -279 c0 -237 2
-278 14 -274 11 5 11 0 -2 -23 -14 -25 -15 -36 -4 -90 7 -34 22 -81 32 -103
11 -23 24 -60 30 -83 10 -40 27 -67 102 -162 21 -26 38 -50 38 -54 0 -5 5 -8
11 -8 6 0 1 13 -10 29 -12 16 -21 33 -21 38 0 4 -12 26 -26 46 -14 21 -23 42
-19 45 4 4 12 -2 19 -12 6 -11 23 -32 38 -47 16 -16 28 -34 28 -41 0 -9 2 -10
8 -2 14 22 48 -4 67 -50 11 -25 23 -46 27 -46 4 0 8 -7 8 -15 0 -17 -16 -21
-22 -5 -2 6 -8 6 -18 0 -10 -7 -11 -13 -5 -17 16 -12 45 -61 45 -76 0 -7 15
-28 32 -46 46 -47 113 -89 304 -189 13 -7 30 -12 37 -9 7 2 -13 16 -43 32 -30
15 -57 31 -60 35 -3 4 -26 15 -52 25 -38 14 -51 25 -64 55 -10 21 -22 36 -28
34 -14 -5 -56 85 -55 117 0 22 1 22 14 -6 7 -16 16 -39 19 -49 4 -10 9 -16 12
-14 5 6 -34 138 -62 208 -7 19 -30 89 -50 155 -40 131 -59 174 -83 192 -14 10
-13 13 12 22 15 6 27 14 28 18 2 27 9 47 17 52 44 30 100 85 96 95 -5 13 89
106 107 106 20 0 7 -20 -38 -59 l-48 -42 92 46 c88 43 123 54 123 37 0 -4 -6
-14 -12 -21 -11 -11 -7 -12 22 -6 l35 7 -27 -27 c-16 -14 -28 -31 -28 -38 0
-7 4 -6 10 3 9 13 11 13 19 1 7 -11 17 -4 42 32 18 26 38 47 45 47 6 0 25 3
42 6 28 6 30 4 25 -15 -3 -11 -10 -21 -15 -21 -5 0 -7 -8 -4 -18 5 -16 -40
-94 -64 -112 -4 -3 -21 -32 -39 -65 -30 -59 -41 -102 -21 -90 5 3 10 17 10 29
0 13 9 34 21 47 l20 24 -7 -24 c-3 -13 -1 -26 5 -30 7 -5 8 -17 2 -38 -9 -31
-2 -37 25 -20 8 5 13 -22 16 -93 2 -55 9 -105 15 -111 14 -14 51 18 73 64 19
40 62 52 53 15 -4 -15 -2 -20 4 -13 5 6 16 37 24 70 13 56 14 58 19 27 l5 -33
26 30 c15 17 24 33 21 36 -3 3 0 5 7 5 16 0 25 -28 13 -43 -5 -6 -13 -37 -16
-68 -6 -48 -4 -57 14 -74 22 -20 26 -14 8 14 -9 15 -9 25 0 46 7 14 12 41 12
59 0 46 52 126 78 119 11 -2 23 0 26 6 4 6 16 11 27 11 10 0 27 9 36 19 9 11
20 18 25 15 12 -7 -3 -184 -18 -223 -8 -18 -17 -66 -20 -105 -7 -89 -47 -224
-74 -253 -11 -12 -20 -29 -20 -37 0 -8 -9 -30 -19 -48 -11 -18 -23 -63 -26
-100 l-7 -68 1471 0 1471 0 0 483 -1 482 -31 -65 c-17 -36 -39 -76 -49 -89
-11 -13 -19 -34 -19 -46 0 -12 -7 -28 -15 -35 -17 -14 -14 -18 -39 70 -17 60
-57 132 -63 113 -2 -6 3 -51 11 -100 19 -105 21 -212 5 -196 -6 6 -12 33 -15
59 -5 71 -20 132 -27 114 -3 -8 -8 -36 -12 -62 -3 -26 -13 -54 -21 -62 -8 -8
-17 -29 -20 -45 -6 -28 -10 -31 -46 -31 -21 0 -37 4 -33 9 3 5 -2 31 -11 56
-8 26 -13 53 -10 61 3 7 1 16 -4 19 -16 10 -12 35 5 35 12 0 35 36 35 54 0 12
-41 11 -51 0 -6 -8 -19 -14 -28 -14 -10 0 -12 -3 -5 -8 16 -11 24 -41 14 -47
-6 -4 -10 4 -10 17 0 17 -3 19 -9 9 -6 -8 -11 33 -14 110 -7 149 -6 181 9 186
7 2 10 -7 8 -23 -4 -40 20 -79 71 -116 50 -37 57 -51 20 -42 -15 4 -25 2 -25
-5 0 -12 36 -48 63 -63 17 -9 18 -7 11 14 -5 12 -9 34 -10 48 -4 44 -15 66
-37 75 -12 6 -23 19 -25 29 -2 10 -13 28 -23 39 -42 45 -19 48 51 7 28 -17 53
-30 55 -30 3 0 5 11 5 25 l0 24 25 -24 c13 -14 32 -25 41 -25 26 0 13 60 -35
166 -34 75 -41 103 -42 155 0 35 -5 87 -10 114 -5 28 -16 90 -24 138 -9 49
-20 98 -26 109 -6 12 -16 86 -22 165 -6 78 -15 143 -19 143 -4 0 -8 -6 -8 -13
0 -7 -7 -22 -15 -33 -12 -16 -12 -11 1 35 9 30 20 66 26 80 5 14 14 95 19 180
9 149 24 213 53 233 7 4 4 36 -7 93 -13 69 -14 90 -4 101 48 54 55 80 58 213
2 67 7 121 12 121 5 0 6 7 3 15 -3 9 0 18 8 21 7 3 21 40 31 82 10 42 23 88
30 102 7 14 16 45 20 70 4 25 11 50 16 56 6 8 3 13 -11 17 -15 4 -19 12 -16
36 2 17 -1 28 -5 25 -5 -3 -14 6 -20 20 -7 14 -29 35 -51 46 -48 25 -66 26
-46 3 14 -17 21 -33 48 -106 8 -24 13 -26 30 -17 16 8 18 8 14 -4 -5 -14 -47
-26 -87 -26 -19 0 -19 1 -4 13 22 16 10 68 -30 134 -22 36 -36 49 -58 51 -22
3 -26 0 -22 -12z m-358 -86 c7 -11 -42 -37 -51 -27 -9 9 15 37 32 37 7 0 16
-4 19 -10z m331 -75 c0 -14 -4 -25 -8 -25 -10 0 -10 13 -2 34 9 23 12 20 10
-9z m76 -7 c-7 -7 -12 -8 -12 -2 0 6 3 14 7 17 3 4 9 5 12 2 2 -3 -1 -11 -7
-17z m-78 -43 c3 -8 -2 -19 -11 -26 -13 -11 -18 -10 -34 10 -11 13 -19 26 -19
30 0 13 58 -1 64 -14z m182 -22 c-10 -10 -19 5 -10 18 6 11 8 11 12 0 2 -7 1
-15 -2 -18z m-47 1 c2 -2 -2 -10 -9 -19 -14 -17 -40 -20 -40 -6 0 5 -10 13
-21 16 -17 6 -19 9 -8 16 12 8 67 3 78 -7z m-509 -35 c0 -5 -4 -9 -10 -9 -5 0
-10 7 -10 16 0 8 5 12 10 9 6 -3 10 -10 10 -16z m323 7 c4 -9 -3 -16 -16 -20
-27 -7 -33 0 -17 19 16 19 26 19 33 1z m92 -6 c-3 -5 -10 -10 -16 -10 -5 0 -9
5 -9 10 0 6 7 10 16 10 8 0 12 -4 9 -10z m-370 -30 c-5 -15 -2 -20 11 -20 13
0 14 -3 5 -14 -8 -10 -9 -16 -1 -21 6 -3 7 -11 4 -17 -7 -12 -29 6 -29 25 0 7
-8 11 -18 11 -9 -1 -17 4 -17 12 0 8 7 14 15 14 9 0 18 7 21 15 9 22 16 18 9
-5z m387 -45 c-5 -38 -15 -37 -36 3 -13 26 -13 27 13 29 25 2 27 -1 23 -32z
m-446 0 c16 -24 12 -65 -7 -65 -5 0 -9 -10 -9 -22 0 -20 1 -21 20 -3 24 21 28
2 5 -22 -26 -26 -46 -9 -39 34 4 30 1 43 -16 61 -16 17 -18 22 -5 22 8 0 15 5
15 10 0 18 19 10 36 -15z m144 -3 c0 -13 -59 -66 -66 -59 -4 3 1 13 10 22 9 9
16 23 16 31 0 8 9 14 20 14 11 0 20 -4 20 -8z m115 -22 c3 -6 -1 -7 -9 -4 -18
7 -21 14 -7 14 6 0 13 -4 16 -10z m40 0 c-3 -5 -12 -10 -18 -10 -7 0 -6 4 3
10 19 12 23 12 15 0z m15 -40 c0 -5 -5 -10 -11 -10 -5 0 -7 5 -4 10 3 6 8 10
11 10 2 0 4 -4 4 -10z m47 -4 c-3 -8 -2 -17 4 -20 5 -2 4 -3 -2 -2 -15 3 -21
36 -7 36 6 0 8 -6 5 -14z m66 7 c-7 -2 -19 -2 -25 0 -7 3 -2 5 12 5 14 0 19
-2 13 -5z m-343 -70 c0 -29 -8 -29 -31 -2 -18 21 -18 23 -1 35 20 14 32 2 32
-33z m-960 -100 c0 -7 6 -13 14 -13 7 0 21 -11 30 -25 20 -31 21 -41 1 -25
-13 10 -15 9 -16 -11 0 -21 -2 -22 -11 -7 -11 14 -13 13 -25 -10 -8 -14 -16
-45 -20 -67 -5 -41 -6 -42 -42 -40 -33 2 -36 5 -38 36 -2 55 8 133 17 119 6
-9 9 -10 15 0 4 7 2 16 -5 20 -19 12 -5 53 22 66 19 8 26 7 40 -10 10 -12 18
-27 18 -33z m1112 -210 c9 -16 44 -58 77 -94 42 -47 57 -69 47 -72 -19 -8
-139 125 -147 163 -8 37 2 38 23 3z m206 -187 c4 -17 2 -16 -25 0 -15 10 -30
19 -32 20 -2 2 10 2 25 0 18 -2 30 -10 32 -20z m-1364 -68 c-4 -13 -18 -37
-31 -55 -16 -21 -25 -47 -27 -78 -2 -41 1 -49 28 -71 17 -13 40 -33 51 -44 12
-11 29 -20 38 -20 10 0 15 -4 12 -10 -3 -5 -16 -10 -28 -10 -12 0 -30 -7 -40
-14 -20 -15 -57 -10 -57 8 0 6 -5 4 -10 -4 -7 -11 -10 -5 -10 23 0 20 -5 37
-11 37 -6 0 -9 6 -6 14 3 7 1 18 -3 22 -5 5 -6 20 -3 34 6 22 7 23 15 4 5 -12
7 -3 4 27 -4 38 -1 51 17 72 35 39 57 70 57 79 0 4 3 8 6 8 3 0 2 -10 -2 -22z
m270 -6 c2 -4 1 -14 -4 -21 -11 -19 -41 -6 -34 14 6 16 29 20 38 7z m1103
-164 c-3 -7 -5 -2 -5 12 0 14 2 19 5 13 2 -7 2 -19 0 -25z m-1170 -910 c-2
-13 -4 -5 -4 17 -1 22 1 32 4 23 2 -10 2 -28 0 -40z m-353 -133 c-7 -17 -20
-20 -28 -6 -7 10 3 21 20 21 8 0 11 -6 8 -15z m49 -14 c3 -14 1 -18 -9 -14 -8
3 -14 11 -14 19 0 21 17 17 23 -5z m-78 -46 c0 -23 -5 -31 -22 -33 -19 -3 -23
1 -23 26 0 33 8 44 30 40 9 -2 15 -14 15 -33z m75 -16 c0 -25 -15 -24 -42 3
-21 21 -21 22 -2 29 23 8 44 -7 44 -32z m-290 11 c-37 -26 -49 -30 -55 -20 -6
10 28 28 55 29 13 1 13 0 0 -9z m-77 -39 c8 -33 -15 -66 -51 -69 -17 -2 -32
-7 -32 -12 0 -5 -13 -11 -30 -15 -16 -4 -30 -12 -30 -19 0 -7 -9 -21 -19 -30
-15 -13 -20 -14 -24 -4 -3 7 -6 1 -6 -13 -1 -39 -35 -65 -69 -53 -40 14 -35
38 11 42 27 2 37 8 37 20 0 14 -2 14 -9 3 -6 -8 -14 -10 -22 -5 -8 5 -22 7
-31 6 -20 -4 -25 14 -5 21 6 2 9 8 5 12 -15 15 -37 -5 -49 -45 -14 -46 -24
-57 -59 -63 -14 -2 -20 -2 -13 0 7 2 9 11 6 18 -7 19 78 104 140 140 62 36
184 83 218 84 18 1 28 -5 32 -18z m172 -31 c-10 -11 -21 -18 -23 -15 -6 6 31
44 37 39 2 -2 -4 -13 -14 -24z m155 2 c0 -14 -11 -21 -26 -15 -8 3 -11 9 -8
14 7 11 34 12 34 1z m-143 -58 c-9 -9 -28 6 -21 18 4 6 10 6 17 -1 6 -6 8 -13
4 -17z m-155 -9 c0 -5 -5 -11 -11 -13 -6 -2 -11 4 -11 13 0 9 5 15 11 13 6 -2
11 -8 11 -13z m1618 -25 c0 -4 -7 -10 -15 -14 -10 -4 -15 1 -15 14 0 13 5 18
15 14 8 -4 15 -10 15 -14z m-1522 -2 c19 -19 14 -30 -10 -22 -29 8 -31 10 -23
23 8 14 18 14 33 -1z m-190 -23 c-10 -23 -12 -23 -24 -7 -8 10 -13 12 -14 5 0
-14 -20 -18 -20 -5 0 10 38 30 57 31 10 1 10 -5 1 -24z m1714 -17 c-7 -7 -12
-8 -12 -2 0 14 12 26 19 19 2 -3 -1 -11 -7 -17z m-1542 -18 c0 -5 -4 -10 -10
-10 -5 0 -10 5 -10 10 0 6 5 10 10 10 6 0 10 -4 10 -10z m-210 -20 c0 -5 -12
-10 -26 -10 -14 0 -23 4 -19 10 3 6 15 10 26 10 10 0 19 -4 19 -10z m134 -47
c-3 -21 -9 -42 -14 -47 -11 -11 -40 -1 -40 14 0 6 4 9 9 5 5 -3 12 -1 15 4 4
5 2 12 -4 16 -22 13 -10 27 37 44 1 1 -1 -16 -3 -36z m26 -3 l-8 -35 -1 31
c-1 17 2 34 6 37 11 12 12 3 3 -33z m-120 5 c0 -8 -4 -15 -10 -15 -5 0 -10 7
-10 15 0 8 5 15 10 15 6 0 10 -7 10 -15z m-136 -30 c5 -22 4 -26 -4 -15 -5 8
-10 24 -10 34 0 26 6 18 14 -19z m74 21 c17 -10 15 -46 -2 -46 -8 0 -16 7 -20
15 -3 8 -12 15 -21 15 -8 0 -15 6 -15 14 0 15 35 16 58 2z m246 -1 c-6 -16
-24 -21 -24 -7 0 11 11 22 21 22 5 0 6 -7 3 -15z m-1859 -88 c8 -20 12 -37 7
-37 -8 0 -32 57 -32 75 0 14 9 1 25 -38z m1683 6 c5 -17 -26 -29 -40 -15 -6 6
-7 15 -3 22 9 14 37 9 43 -7z m174 -8 c-5 -26 -8 -29 -27 -22 -8 4 -15 16 -15
27 0 16 5 21 23 18 16 -2 21 -9 19 -23z m-142 -41 c0 -8 -7 -14 -15 -14 -15 0
-21 21 -9 33 10 9 24 -2 24 -19z m1392 -26 c-21 -21 -13 -31 13 -14 18 12 25
13 25 4 0 -17 -45 -37 -61 -27 -10 6 -9 12 5 28 11 12 22 21 25 21 3 0 0 -5
-7 -12z m-3042 -90 c13 -35 28 -69 33 -76 9 -11 2 -32 -7 -21 -3 3 -62 125
-74 152 -2 4 3 7 11 7 9 0 24 -25 37 -62z m2970 52 c0 -5 -4 -10 -10 -10 -5 0
-10 5 -10 10 0 6 5 10 10 10 6 0 10 -4 10 -10z m-1287 -46 c-3 -12 -43 -18
-43 -6 0 5 3 11 6 14 8 9 39 2 37 -8z m-1510 -36 c6 -22 5 -22 -8 -4 -17 22
-20 40 -6 32 5 -3 11 -16 14 -28z m1710 -18 c5 0 7 -6 4 -14 -3 -8 1 -20 9
-26 20 -18 17 -29 -6 -23 -15 4 -20 0 -20 -13 -1 -17 -2 -17 -13 -3 -7 9 -18
14 -24 12 -7 -3 -13 2 -13 11 0 9 -7 16 -15 16 -8 0 -15 5 -15 10 0 6 7 10 15
10 8 0 15 4 15 10 0 5 8 19 17 30 l18 21 9 -21 c5 -11 13 -20 19 -20z m777 21
c0 -6 -4 -13 -10 -16 -5 -3 -10 1 -10 9 0 9 5 16 10 16 6 0 10 -4 10 -9z
m-2540 -66 c0 -5 -5 -3 -10 5 -5 8 -10 20 -10 25 0 6 5 3 10 -5 5 -8 10 -19
10 -25z m2575 25 c3 -5 -3 -10 -15 -10 -12 0 -18 5 -15 10 3 6 10 10 15 10 5
0 12 -4 15 -10z m881 -52 c-3 -19 -16 -38 -27 -38 -14 0 -11 38 4 43 20 9 25
8 23 -5z m-3420 -44 c17 -41 17 -45 0 -38 -8 3 -18 23 -24 45 -12 47 3 43 24
-7z m3410 -70 c-5 -13 -10 -14 -18 -6 -6 6 -8 18 -4 28 5 13 10 14 18 6 6 -6
8 -18 4 -28z m-256 -45 c0 -6 -4 -7 -10 -4 -5 3 -10 11 -10 16 0 6 5 7 10 4 6
-3 10 -11 10 -16z m-3005 -44 c4 -21 3 -25 -3 -15 -15 24 -26 67 -14 55 6 -5
13 -23 17 -40z"/>
<path d="M3525 3310 c3 -5 8 -10 11 -10 2 0 4 5 4 10 0 6 -5 10 -11 10 -5 0
-7 -4 -4 -10z"/>
<path d="M1618 1103 c7 -3 16 -2 19 1 4 3 -2 6 -13 5 -11 0 -14 -3 -6 -6z"/>
<path d="M1400 989 c0 -5 5 -7 10 -4 6 3 10 8 10 11 0 2 -4 4 -10 4 -5 0 -10
-5 -10 -11z"/>
<path d="M1930 610 c0 -11 7 -20 15 -20 8 0 15 6 15 14 0 8 -7 16 -15 20 -10
4 -15 -1 -15 -14z"/>
<path d="M3865 3480 c3 -5 13 -10 21 -10 8 0 12 5 9 10 -3 6 -13 10 -21 10 -8
0 -12 -4 -9 -10z"/>
<path d="M3915 3460 c3 -5 8 -10 11 -10 2 0 4 5 4 10 0 6 -5 10 -11 10 -5 0
-7 -4 -4 -10z"/>
<path d="M3888 3378 c-39 -45 -42 -56 -9 -39 23 13 38 -2 33 -31 -2 -10 0 -18
4 -18 4 0 13 8 20 18 8 10 13 12 14 5 0 -29 27 1 28 32 1 35 -11 54 -23 35 -7
-12 -25 -4 -25 11 0 5 7 9 15 9 8 0 15 5 15 10 0 24 -39 7 -72 -32z"/>
<path d="M1784 3381 c3 -5 -1 -11 -9 -15 -8 -3 -15 -12 -15 -21 0 -14 3 -14
25 2 29 21 31 29 9 37 -8 3 -13 2 -10 -3z"/>
<path d="M3926 3271 c-4 -5 -3 -16 0 -25 3 -9 1 -16 -4 -16 -6 0 -13 8 -15 18
-3 11 -5 7 -6 -10 -1 -28 13 -45 24 -28 9 14 24 3 36 -27 5 -13 14 -21 20 -18
6 4 8 14 5 22 -4 9 -1 22 5 29 7 8 8 25 4 41 -6 26 -8 27 -20 10 -12 -17 -50
-14 -39 4 3 5 3 9 0 9 -3 0 -7 -4 -10 -9z m54 -46 c-7 -8 -17 -12 -23 -8 -6 4
-3 11 8 19 23 17 32 10 15 -11z"/>
<path d="M3865 3165 c3 -22 5 -55 5 -74 0 -43 10 -35 16 13 2 20 -2 50 -11 68
l-15 33 5 -40z"/>
<path d="M1580 3031 c-25 -15 -71 -43 -103 -62 -32 -19 -85 -60 -117 -91 -56
-55 -99 -108 -86 -108 3 0 41 27 83 61 43 33 119 91 168 128 124 93 157 137
55 72z"/>
<path d="M3980 3010 c-8 -5 -12 -11 -9 -14 2 -3 11 -1 19 4 8 5 12 11 9 14 -2
3 -11 1 -19 -4z"/>
<path d="M3880 2981 c0 -11 4 -22 9 -25 4 -3 6 6 3 19 -5 30 -12 33 -12 6z"/>
<path d="M3987 2943 c-4 -3 -7 -11 -7 -17 0 -6 5 -5 12 2 6 6 9 14 7 17 -3 3
-9 2 -12 -2z"/>
<path d="M3881 2924 c0 -11 3 -14 6 -6 3 7 2 16 -1 19 -3 4 -6 -2 -5 -13z"/>
<path d="M3777 2322 c-11 -12 -17 -36 -17 -65 0 -43 3 -49 38 -70 45 -29 189
-107 197 -107 3 0 5 39 5 88 l0 87 -80 43 c-88 46 -118 51 -143 24z"/>
<path d="M3709 2127 c-11 -19 -16 -94 -8 -101 11 -8 191 -97 242 -120 l57 -25
-1 72 0 72 -59 29 c-33 16 -64 25 -71 21 -8 -5 -10 -4 -5 4 4 6 0 14 -11 17
-10 3 -31 12 -46 21 -15 8 -41 18 -57 23 -25 7 -32 5 -41 -13z"/>
<path d="M1745 2050 c-16 -7 -17 -9 -3 -9 9 -1 20 4 23 9 7 11 7 11 -20 0z"/>
<path d="M350 1750 c-63 -34 -75 -36 -66 -15 7 19 -13 19 -41 0 -12 -8 -29
-12 -37 -9 -12 4 -15 2 -11 -9 10 -25 205 -52 205 -28 0 5 17 11 38 14 21 4
46 14 57 22 19 15 16 16 -42 12 -65 -5 -74 0 -47 27 22 23 7 19 -56 -14z"/>
<path d="M296 1365 c-11 -8 -28 -15 -38 -15 -10 0 -18 -4 -18 -10 0 -5 -10
-10 -22 -10 -13 -1 -34 -7 -48 -16 -25 -15 -24 -15 15 -10 70 9 82 13 116 32
34 20 50 44 27 44 -7 0 -22 -7 -32 -15z"/>
<path d="M3770 1230 c0 -5 7 -10 16 -10 8 0 12 5 9 10 -3 6 -10 10 -16 10 -5
0 -9 -4 -9 -10z"/>
<path d="M3947 1183 c-9 -9 22 -43 40 -43 18 0 16 14 -5 33 -21 19 -26 20 -35
10z"/>
<path d="M3970 1080 c19 -13 30 -13 30 0 0 6 -10 10 -22 10 -19 0 -20 -2 -8
-10z"/>
<path d="M3740 845 c0 -8 7 -15 16 -15 14 0 14 3 4 15 -7 8 -14 15 -16 15 -2
0 -4 -7 -4 -15z"/>
<path d="M3690 751 c0 -10 7 -21 15 -25 11 -4 15 1 15 19 0 16 -6 25 -15 25
-8 0 -15 -9 -15 -19z"/>
<path d="M880 530 c0 -5 5 -10 10 -10 6 0 10 5 10 10 0 6 -4 10 -10 10 -5 0
-10 -4 -10 -10z"/>
<path d="M593 460 c-24 -29 -30 -45 -13 -35 14 9 52 65 43 64 -4 0 -18 -13
-30 -29z"/>
<path d="M257 443 c-10 -15 9 -53 26 -53 9 0 9 2 1 8 -7 4 -14 18 -16 32 -2
17 -6 21 -11 13z"/>
<path d="M185 370 c3 -5 8 -10 11 -10 2 0 4 5 4 10 0 6 -5 10 -11 10 -5 0 -7
-4 -4 -10z"/>
<path d="M280 365 c0 -9 5 -15 11 -13 6 2 11 8 11 13 0 5 -5 11 -11 13 -6 2
-11 -4 -11 -13z"/>
<path d="M530 30 c24 -21 45 -30 70 -30 l35 1 -35 15 c-19 8 -38 22 -43 30 -4
7 -20 14 -35 14 l-27 -1 35 -29z"/>
</g>
</svg>
